<?xml version="1.0" encoding="utf-8"?>
<!-- Generator: Adobe Illustrator 21.1.0, SVG Export Plug-In . SVG Version: 6.00 Build 0)  -->
<svg version="1.1" id="HSBC_x5F_BANK" xmlns="http://www.w3.org/2000/svg" xmlns:xlink="http://www.w3.org/1999/xlink" x="0px"
	 y="0px" viewBox="0 0 486.1 255.1" style="enable-background:new 0 0 486.1 255.1;" xml:space="preserve">
<style type="text/css">
	.st0{fill:#FFFFFF;}
	.st1{fill:#DB0011;}
</style>
<g>
	<g>
		<g>
			<g>
				<g>
					<g>
						<polygon class="st0" points="255.1,127.6 212.6,85 212.6,170.1 						"/>
						<polygon class="st0" points="170.1,127.6 212.6,85 127.6,85 						"/>
						<polygon class="st0" points="85,127.6 127.6,170.1 127.6,85 						"/>
						<polygon class="st0" points="170.1,127.6 127.6,170.1 212.6,170.1 						"/>
					</g>
				</g>
			</g>
		</g>
	</g>
	<g>
		<g>
			<path class="st0" d="M292.4,105.4H277v15.2h-7.7V85h7.7v14.6h15.4V85h7.7v35.6h-7.7V105.4z"/>
			<path class="st0" d="M318.7,121.3c-7.7,0-14-3.1-14.1-11.6h7.7c0.1,3.8,2.3,6.1,6.6,6.1c3.2,0,6.7-1.6,6.7-5.1
				c0-2.8-2.4-3.6-6.4-4.8l-2.6-0.7c-5.6-1.6-11.2-3.8-11.2-10.2c0-7.9,7.4-10.6,14.1-10.6c6.9,0,12.9,2.4,13,10.3h-7.7
				c-0.3-3.3-2.2-5.1-5.8-5.1c-2.9,0-5.7,1.5-5.7,4.7c0,2.6,2.4,3.4,7.4,5l3,0.9c6.1,1.9,9.9,4,9.9,9.9
				C333.5,118.2,325.7,121.3,318.7,121.3z"/>
			<path class="st0" d="M337.9,85h12.4c3.9,0,5.5,0.1,7,0.4c4.3,1,7.6,3.8,7.6,8.6c0,4.6-2.9,6.9-7.1,8c4.8,0.9,8.4,3.3,8.4,8.6
				c0,8.1-8,9.9-14.2,9.9h-14V85z M350.3,99.9c3.4,0,6.8-0.7,6.8-4.8c0-3.7-3.3-4.7-6.4-4.7h-5.4v9.5H350.3z M351,115.3
				c3.6,0,7.1-0.8,7.1-5.2c0-4.2-3.1-5.2-6.7-5.2h-6.1v10.4H351z"/>
			<path class="st0" d="M386.2,121.3c-11.5,0-16.6-7.3-16.6-18.2c0-10.7,5.7-18.8,17-18.8c7.1,0,14,3.2,14.2,11.2h-8
				c-0.4-3.5-2.8-5.4-6.2-5.4c-6.9,0-9.1,7.5-9.1,13.2c0,5.7,2.1,12.3,8.8,12.3c3.5,0,6.1-1.9,6.6-5.5h8
				C400.1,118.2,393.6,121.3,386.2,121.3z"/>
		</g>
	</g>
	<g>
		<g>
			<path class="st0" d="M279.1,170.1h-9.8v-35.6h9.8c3.5,0,4.9,0.1,6.2,0.5c3.8,1.1,6.5,4.2,6.5,8.3c0,4.4-2.5,7.1-6.6,8.2
				c4.9,0.6,8.1,3.6,8.1,8.7C293.3,168.4,285.7,170.1,279.1,170.1z M281,137.3h-8.5v13h7.6c4.5,0,8.3-1.7,8.3-6.8
				C288.4,139.1,285,137.3,281,137.3z M280.7,152.9h-8.2v14.3h6.3c5.2,0,11.1-0.3,11.1-7.1C289.9,154.3,285.6,152.9,280.7,152.9z"/>
			<path class="st0" d="M313,166.5c-2.1,3.2-4.6,4.1-8.3,4.1c-4.5,0-8.7-2.3-8.7-7.3c0-7.9,9.3-8.2,15.4-8.2h1.3c0-0.6,0-1.1,0-1.7
				c0-4.2-1.7-6.4-6.1-6.4c-3.2,0-5.4,1-5.8,4.6h-3c0-5,4.3-6.8,8.7-6.8c6.2,0,9,2.6,9,8.7v7.4c0,3.1,0.1,6.1,0.5,9.2h-2.8
				C313.3,168.9,313.1,167.7,313,166.5z M310.3,157.3c-4.1,0-11.2,0.2-11.2,6c0,3.4,3,5.2,6.2,5.2c7.1,0,7.5-5.6,7.5-11.1
				C311.9,157.3,311.1,157.3,310.3,157.3z"/>
			<path class="st0" d="M338.7,156c0-4.6-0.5-8.6-6.3-8.6c-5.6,0-7.6,4.4-7.6,9.4v13.2h-3v-17.8c0-2.4-0.1-4.7-0.1-7h3l0.2,4.1
				c2-3,4.5-4.4,8.1-4.4c6.7,0,8.7,3.7,8.7,9.9v15.2h-3V156z"/>
			<path class="st0" d="M347.8,134.5h3v35.6h-3V134.5z M351.1,156l11.8-10.8h4l-12.1,10.7l13.1,14.1H364L351.1,156z"/>
		</g>
	</g>
</g>
</svg>
