<?xml version="1.0" encoding="utf-8"?>
<!-- Generator: Adobe Illustrator 24.2.0, SVG Export Plug-In . SVG Version: 6.00 Build 0)  -->
<svg version="1.1" id="Layer_1" xmlns="http://www.w3.org/2000/svg" xmlns:xlink="http://www.w3.org/1999/xlink" x="0px" y="0px"
	 viewBox="0 0 1024 198.5" style="enable-background:new 0 0 1024 198.5;" xml:space="preserve">
<style type="text/css">
	.st0{fill:#9FEF00;}
	.st1{fill:#FFFFFF;}
</style>
<path class="st0" d="M204.5,60.9C204.5,60.9,204.5,60.9,204.5,60.9c0-1.7-0.7-3.3-1.8-4.4c-0.1-0.1-0.1-0.1-0.2-0.2
	c-0.1-0.1-0.3-0.2-0.4-0.3c-0.1-0.1-0.3-0.2-0.4-0.3c-0.1,0-0.1-0.1-0.2-0.1l-64.8-37.4c-0.2-0.1-0.3-0.2-0.5-0.3
	c-1.8-0.9-4-0.8-5.7,0.3L65.8,55.7c-0.1,0-0.1,0.1-0.2,0.1c0,0-0.1,0.1-0.2,0.1c0,0-0.1,0.1-0.1,0.1c-0.1,0.1-0.2,0.2-0.3,0.3
	c-0.1,0.1-0.1,0.1-0.2,0.2c-0.2,0.1-0.3,0.3-0.4,0.4l0,0c-1,1.1-1.5,2.5-1.5,3.9c0,0,0,0.1,0,0.1c0,0.1,0,0.1,0,0.2l0,74.6
	c0,2.2,1.2,4.2,3.2,5.3l64.7,37.3c0.1,0,0.1,0.1,0.2,0.1c0.1,0.1,0.3,0.1,0.4,0.2c0.1,0,0.2,0.1,0.3,0.1c0.1,0.1,0.3,0.1,0.4,0.1
	c0.1,0,0.2,0.1,0.3,0.1c0.2,0,0.3,0.1,0.5,0.1c0.1,0,0.2,0,0.2,0c0.5,0.1,1,0.1,1.5,0c0.1,0,0.2,0,0.2,0c0.2,0,0.3-0.1,0.5-0.1
	c0.1,0,0.2-0.1,0.3-0.1c0.1,0,0.3-0.1,0.4-0.1c0.1,0,0.2-0.1,0.3-0.1c0.1-0.1,0.3-0.1,0.4-0.2c0.1,0,0.1,0,0.2-0.1l64.7-37.3
	c1.9-1,3.2-3.1,3.2-5.3l0-74.7C204.5,61,204.5,61,204.5,60.9z M88.2,58.4L132.3,33c0.9-0.5,1.9-0.5,2.8,0l44.1,25.4
	c1.3,0.8,1.8,2.5,1,3.9c-0.2,0.4-0.6,0.8-1,1l-44.1,25.4c-0.9,0.5-1.9,0.5-2.8,0L88.2,63.3c-1.3-0.8-1.8-2.5-1-3.8
	C87.4,59,87.8,58.6,88.2,58.4z M126.1,155.1c0,1.6-1.3,2.8-2.8,2.8c-0.5,0-1-0.1-1.4-0.4l-44-25.4c-0.9-0.5-1.4-1.4-1.4-2.4V78.9
	c0-1.6,1.3-2.8,2.8-2.8c0.5,0,1,0.1,1.4,0.4l44,25.4c0.9,0.5,1.4,1.4,1.4,2.4L126.1,155.1z M190.9,129.7c0,1-0.5,1.9-1.4,2.4
	l-44,25.4c-1.3,0.8-3.1,0.3-3.8-1c-0.2-0.4-0.4-0.9-0.4-1.4v-50.8c0-1,0.5-1.9,1.4-2.4l44-25.4c1.3-0.8,3.1-0.3,3.8,1
	c0.2,0.4,0.4,0.9,0.4,1.4V129.7z"/>
<path class="st1" d="M307.1,129.2v-23.8c0-0.8-0.7-1.5-1.5-1.5h-20.9c-0.8,0-1.5,0.7-1.5,1.5v23.8c0,0.8-0.7,1.5-1.5,1.5h-12.7
	c-0.8,0-1.5-0.7-1.5-1.5V67.4c0-0.8,0.7-1.5,1.5-1.5h12.7c0.8,0,1.5,0.7,1.5,1.5v21.6c0,0.8,0.7,1.5,1.5,1.5h20.9
	c0.8,0,1.5-0.7,1.5-1.5V67.4c0-0.8,0.7-1.5,1.5-1.5h12.7c0.8,0,1.5,0.7,1.5,1.5v61.8c0,0.8-0.7,1.5-1.5,1.5h-12.7
	C307.7,130.7,307.1,130,307.1,129.2C307.1,129.2,307.1,129.2,307.1,129.2z"/>
<path class="st1" d="M357.6,118l-3.5,11.6c-0.2,0.6-0.8,1.1-1.5,1.1h-13.3c-0.8,0-1.5-0.7-1.5-1.5c0-0.2,0-0.3,0.1-0.5l21.1-61.8
	c0.2-0.6,0.8-1,1.4-1h18.5c0.6,0,1.2,0.4,1.4,1l21.1,61.8c0.3,0.8-0.2,1.7-0.9,1.9c-0.2,0.1-0.3,0.1-0.5,0.1h-13.3
	c-0.7,0-1.3-0.4-1.5-1.1l-3.5-11.6c-0.2-0.6-0.8-1.1-1.5-1.1H359C358.4,116.9,357.8,117.4,357.6,118z M376.2,99.6
	c-2.4-7.7-4.6-15.8-6.6-23.6h-0.2c-1.9,7.8-4.1,15.8-6.4,23.6l-0.7,2.4c-0.2,0.8,0.2,1.6,1,1.9c0.1,0,0.3,0.1,0.4,0.1h11.7
	c0.8,0,1.5-0.7,1.5-1.5c0-0.2,0-0.3-0.1-0.5L376.2,99.6z"/>
<path class="st1" d="M468.6,89.2h-13.4c-0.7,0-1.4-0.5-1.5-1.3c-1.1-6.2-5.3-9.9-11.8-9.9c-8.6,0-13.8,7.7-13.8,20.2
	s5.3,20.2,13.7,20.2c6.4,0,10.8-3.7,12-10.2c0.1-0.7,0.8-1.2,1.5-1.2h13.5c0.8,0,1.5,0.7,1.5,1.5c0,0.1,0,0.1,0,0.2
	c-1.9,15-12.6,23.4-28.5,23.4c-18.7,0-30.2-12.8-30.2-33.9s11.6-33.9,30.3-33.9c16.1,0,26.8,8.9,28.1,23.1c0.1,0.8-0.5,1.6-1.4,1.7
	C468.7,89.2,468.6,89.2,468.6,89.2z"/>
<path class="st1" d="M542.3,130.7h-16c-0.5,0-1-0.3-1.3-0.7l-19.3-29.2h-0.2v28.4c0,0.8-0.7,1.5-1.5,1.5h-12.7
	c-0.8,0-1.5-0.7-1.5-1.5V67.4c0-0.8,0.7-1.5,1.5-1.5H504c0.8,0,1.5,0.7,1.5,1.5v26.4h0.2l18.6-27.3c0.3-0.4,0.8-0.7,1.3-0.7h15
	c0.8,0,1.5,0.7,1.5,1.5c0,0.3-0.1,0.7-0.3,0.9l-21,27.3c-0.4,0.5-0.4,1.3,0,1.8l22.8,30.8c0.5,0.7,0.4,1.6-0.3,2.1
	C542.9,130.6,542.6,130.7,542.3,130.7z"/>
<path class="st1" d="M586.3,74.8v54.4c0,0.8-0.7,1.5-1.5,1.5h-5.4c-0.8,0-1.5-0.7-1.5-1.5V74.8c0-0.8-0.7-1.5-1.5-1.5h-19.1
	c-0.8,0-1.5-0.7-1.5-1.5v-4.4c0-0.8,0.7-1.5,1.5-1.5h49.7c0.8,0,1.5,0.7,1.5,1.5v4.4c0,0.8-0.7,1.5-1.5,1.5h-19.1
	C587,73.3,586.3,74,586.3,74.8z"/>
<path class="st1" d="M666.8,129.2v-26.9c0-0.8-0.7-1.5-1.5-1.5h-30c-0.8,0-1.5,0.7-1.5,1.5v26.9c0,0.8-0.7,1.5-1.5,1.5h-5.3
	c-0.8,0-1.5-0.7-1.5-1.5V67.4c0-0.8,0.7-1.5,1.5-1.5h5.3c0.8,0,1.5,0.7,1.5,1.5v24.5c0,0.8,0.7,1.5,1.5,1.5h30
	c0.8,0,1.5-0.7,1.5-1.5V67.4c0-0.8,0.7-1.5,1.5-1.5h5.4c0.8,0,1.5,0.7,1.5,1.5v61.8c0,0.8-0.7,1.5-1.5,1.5h-5.4
	C667.5,130.7,666.8,130,666.8,129.2C666.8,129.2,666.8,129.2,666.8,129.2z"/>
<path class="st1" d="M710,74.8v17.5c0,0.8,0.7,1.5,1.5,1.5l0,0H740c0.8,0,1.5,0.7,1.5,1.5v4.3c0,0.8-0.7,1.5-1.5,1.5h-28.5
	c-0.8,0-1.5,0.7-1.5,1.5v19c0,0.8,0.7,1.5,1.5,1.5h31.4c0.8,0,1.5,0.7,1.5,1.5v4.4c0,0.8-0.7,1.5-1.5,1.5h-39.8
	c-0.8,0-1.5-0.7-1.5-1.5V67.4c0-0.8,0.7-1.5,1.5-1.5h38.8c0.8,0,1.5,0.7,1.5,1.5v4.4c0,0.8-0.7,1.5-1.5,1.5h-30.4
	C710.7,73.3,710,74,710,74.8L710,74.8z"/>
<path class="st1" d="M790.6,65.8c16.1,0,23.6,6.7,23.6,16.7c0,7.6-3.6,12.2-11,14.8v0.2c8.5,1.9,12.7,6.9,12.7,15.1
	c0,11-8.7,18-23.7,18h-25.4c-0.8,0-1.5-0.7-1.5-1.5V67.4c0-0.8,0.7-1.5,1.5-1.5L790.6,65.8z M780.8,90.6c0,0.8,0.7,1.5,1.5,1.5h6.7
	c7,0,10-2.3,10-7.1s-2.9-6.9-9.5-6.9h-7.2c-0.8,0-1.5,0.7-1.5,1.5V90.6z M780.8,116.9c0,0.8,0.7,1.5,1.5,1.5h7
	c7.4,0,10.3-2.3,10.3-7.2c0-5.2-3-7.6-10.6-7.6h-6.8c-0.8,0-1.5,0.7-1.5,1.5V116.9z"/>
<path class="st1" d="M893.5,98.3c0,20.9-12,33.9-31.3,33.9c-19.4,0-31.4-13-31.4-33.9s12-33.9,31.4-33.9
	C881.5,64.4,893.5,77.4,893.5,98.3z M847.3,98.3c0,12.8,5.5,20.2,14.9,20.2c9.4,0,14.8-7.5,14.8-20.2s-5.5-20.2-14.8-20.2
	C852.7,78.1,847.3,85.5,847.3,98.3z"/>
<path class="st1" d="M959.7,130.7h-15c-0.6,0-1.1-0.3-1.3-0.8l-11.2-21.6H932l-11.3,21.6c-0.3,0.5-0.8,0.8-1.3,0.8h-14.9
	c-0.8,0-1.5-0.7-1.5-1.5c0-0.3,0.1-0.5,0.2-0.8l18.3-30.2c0.3-0.5,0.3-1.1,0-1.6l-17.2-28.5c-0.4-0.7-0.2-1.7,0.5-2.1
	c0.2-0.1,0.5-0.2,0.8-0.2H920c0.6,0,1.1,0.3,1.4,0.8L932,87.5h0.2l10.5-20.8c0.3-0.5,0.8-0.8,1.4-0.8h14.5c0.8,0,1.5,0.7,1.5,1.5
	c0,0.3-0.1,0.5-0.2,0.8l-17.2,28.5c-0.3,0.5-0.3,1.1,0,1.6l18.3,30.2c0.4,0.7,0.2,1.7-0.5,2.1C960.3,130.6,960,130.7,959.7,130.7z"
	/>
</svg>
