<?xml version="1.0" encoding="UTF-8" standalone="no"?>
<!-- Created with Inkscape (http://www.inkscape.org/) -->

<svg
   xmlns:dc="http://purl.org/dc/elements/1.1/"
   xmlns:cc="http://creativecommons.org/ns#"
   xmlns:rdf="http://www.w3.org/1999/02/22-rdf-syntax-ns#"
   xmlns:svg="http://www.w3.org/2000/svg"
   xmlns="http://www.w3.org/2000/svg"
   xmlns:sodipodi="http://sodipodi.sourceforge.net/DTD/sodipodi-0.dtd"
   xmlns:inkscape="http://www.inkscape.org/namespaces/inkscape"
   width="134.27774mm"
   height="27.192955mm"
   viewBox="0 0 475.78727 96.352935"
   id="svg5620"
   version="1.1"
   inkscape:version="0.91 r13725"
   inkscape:export-filename="C:\Users\SurfBook01\Pictures\SecuredNet-black.png"
   inkscape:export-xdpi="299.83499"
   inkscape:export-ydpi="299.83499"
   sodipodi:docname="SecuredNet-black.svg">
  <defs
     id="defs5622">
    <clipPath
       clipPathUnits="userSpaceOnUse"
       id="clipPath4248">
      <path
         d="m 22.039,610.615 378,0 0,-90 -378,0 0,90 z"
         id="path4250"
         inkscape:connector-curvature="0" />
    </clipPath>
    <clipPath
       clipPathUnits="userSpaceOnUse"
       id="clipPath4258">
      <path
         d="m 87,545 294,0 0,44 -294,0 0,-44 z"
         id="path4260"
         inkscape:connector-curvature="0" />
    </clipPath>
    <linearGradient
       x1="0"
       y1="0"
       x2="1"
       y2="0"
       gradientUnits="userSpaceOnUse"
       gradientTransform="matrix(-6.12,-26.28,-26.28,6.12,46.503867,583.48022)"
       spreadMethod="pad"
       id="linearGradient4324">
      <stop
         style="stop-opacity:1;stop-color:#ffffff"
         offset="0"
         id="stop4326" />
      <stop
         style="stop-opacity:1;stop-color:#2d3844"
         offset="0.633889"
         id="stop4328" />
      <stop
         style="stop-opacity:1;stop-color:#2d3844"
         offset="1"
         id="stop4330" />
    </linearGradient>
    <radialGradient
       fx="0"
       fy="0"
       cx="0"
       cy="0"
       r="1"
       gradientUnits="userSpaceOnUse"
       gradientTransform="matrix(20.84596,0,0,-20.84596,70.555793,586.90356)"
       spreadMethod="pad"
       id="radialGradient4344">
      <stop
         style="stop-opacity:1;stop-color:#ffffff"
         offset="0"
         id="stop4346" />
      <stop
         style="stop-opacity:1;stop-color:#3c7fca"
         offset="0.656489"
         id="stop4348" />
      <stop
         style="stop-opacity:1;stop-color:#3c7fca"
         offset="1"
         id="stop4350" />
    </radialGradient>
    <clipPath
       clipPathUnits="userSpaceOnUse"
       id="clipPath4360">
      <path
         d="m 43,554 43,0 0,30 -43,0 0,-30 z"
         id="path4362"
         inkscape:connector-curvature="0" />
    </clipPath>
    <linearGradient
       x1="0"
       y1="0"
       x2="1"
       y2="0"
       gradientUnits="userSpaceOnUse"
       gradientTransform="matrix(9.726536,0,0,-9.726536,81.930752,563.41578)"
       spreadMethod="pad"
       id="linearGradient4384">
      <stop
         style="stop-opacity:1;stop-color:#ffffff"
         offset="0"
         id="stop4386" />
      <stop
         style="stop-opacity:1;stop-color:#2d3844"
         offset="1"
         id="stop4388" />
    </linearGradient>
    <clipPath
       clipPathUnits="userSpaceOnUse"
       id="clipPath4398">
      <path
         d="m 46,550 1,0 0,1 -1,0 0,-1 z"
         id="path4400"
         inkscape:connector-curvature="0" />
    </clipPath>
    <radialGradient
       fx="0"
       fy="0"
       cx="0"
       cy="0"
       r="1"
       gradientUnits="userSpaceOnUse"
       gradientTransform="matrix(22.92981,0,0,-22.92981,54.277227,576.18603)"
       spreadMethod="pad"
       id="radialGradient4418">
      <stop
         style="stop-opacity:1;stop-color:#ffffff"
         offset="0"
         id="stop4420" />
      <stop
         style="stop-opacity:1;stop-color:#3c7fca"
         offset="0.751953"
         id="stop4422" />
      <stop
         style="stop-opacity:1;stop-color:#3c7fca"
         offset="1"
         id="stop4424" />
    </radialGradient>
    <radialGradient
       fx="0"
       fy="0"
       cx="0"
       cy="0"
       r="1"
       gradientUnits="userSpaceOnUse"
       gradientTransform="matrix(16.123663,0,0,-16.123663,60.461621,546.4673)"
       spreadMethod="pad"
       id="radialGradient4438">
      <stop
         style="stop-opacity:1;stop-color:#ffffff"
         offset="0"
         id="stop4440" />
      <stop
         style="stop-opacity:1;stop-color:#3c7fca"
         offset="0.551057"
         id="stop4442" />
      <stop
         style="stop-opacity:1;stop-color:#3c7fca"
         offset="0.828145"
         id="stop4444" />
      <stop
         style="stop-opacity:1;stop-color:#3c7fca"
         offset="1"
         id="stop4446" />
    </radialGradient>
  </defs>
  <sodipodi:namedview
     id="base"
     pagecolor="#ffffff"
     bordercolor="#666666"
     borderopacity="1.0"
     inkscape:pageopacity="0.0"
     inkscape:pageshadow="2"
     inkscape:zoom="0.35"
     inkscape:cx="-428.53494"
     inkscape:cy="-391.82373"
     inkscape:document-units="px"
     inkscape:current-layer="layer1"
     showgrid="false"
     inkscape:window-width="1500"
     inkscape:window-height="937"
     inkscape:window-x="-8"
     inkscape:window-y="-8"
     inkscape:window-maximized="1"
     fit-margin-top="0"
     fit-margin-left="0"
     fit-margin-right="0"
     fit-margin-bottom="0" />
  <metadata
     id="metadata5625">
    <rdf:RDF>
      <cc:Work
         rdf:about="">
        <dc:format>image/svg+xml</dc:format>
        <dc:type
           rdf:resource="http://purl.org/dc/dcmitype/StillImage" />
        <dc:title></dc:title>
      </cc:Work>
    </rdf:RDF>
  </metadata>
  <g
     inkscape:label="Layer 1"
     inkscape:groupmode="layer"
     id="layer1"
     transform="translate(-144.96352,-44.185833)">
    <rect
       style="display:inline;fill:#000000;fill-opacity:1"
       id="rect4989"
       width="475.78726"
       height="93.348"
       x="144.96352"
       y="44.185711" />
    <rect
       style="display:inline;fill:#3c7fca;fill-opacity:1"
       id="rect4994"
       width="475.78729"
       height="4.0066299"
       x="144.96352"
       y="136.53207" />
    <g
       style="display:inline"
       id="g4244"
       transform="matrix(1.25,0,0,-1.25,123.92869,799.62931)">
      <g
         id="g4246"
         clip-path="url(#clipPath4248)">
        <g
           id="g4252"
           transform="translate(0,-0.307068)">
          <g
             id="g4254">
            <g
               id="g4256"
               clip-path="url(#clipPath4258)">
              <g
                 id="g4262">
                <path
                   d="m 127.191,583.699 c -1.125,0.531 -1.961,0.856 -3.929,0.856 l -9.516,0 c -1.594,0 -2.023,-0.203 -2.262,-1.141 l -0.379,-1.465 c -0.25,-0.976 0.086,-1.136 1.68,-1.136 l 7.25,0 c 4.36,0 6.328,-1.465 5.36,-5.25 l -1.633,-6.348 c -1.055,-4.11 -3.149,-6.391 -8.051,-6.391 l -18.441,0 0.476,5.293 c 0.883,-0.492 1.762,-0.976 3.774,-0.976 l 9.89,0 c 1.594,0 1.969,0.16 2.223,1.136 l 0.457,1.793 c 0.242,0.934 -0.039,1.137 -1.633,1.137 l -8.344,0 c -4.062,0 -5.32,1.305 -4.203,5.656 l 1.492,5.821 c 1.047,4.07 3.645,6.183 7.246,6.183 l 18.989,0 -0.446,-5.168 z"
                   style="fill:#3c7fca;fill-opacity:1;fill-rule:nonzero;stroke:none"
                   id="path4264"
                   inkscape:connector-curvature="0" />
                <path
                   d="m 145.422,574.055 0.668,2.605 c 0.281,1.098 0.062,1.547 -1.027,1.547 l -4.067,0 c -1.09,0 -1.539,-0.449 -1.82,-1.547 l -0.672,-2.605 6.918,0 z m -7.879,-3.742 -0.457,-1.79 c -0.316,-1.382 0.168,-1.953 1.762,-1.953 l 9.511,0 c 1.887,0 2.926,0.121 4.696,0.813 l -1.926,-4.559 -19.699,0 c -4.442,0 -5.239,1.789 -4.215,5.778 l 1.941,7.57 c 1.024,3.988 2.742,5.777 7.184,5.777 l 15.047,0 c 4.445,0 5.242,-1.789 4.218,-5.777 l -1.503,-5.859 -16.559,0 z"
                   style="fill:#3c7fca;fill-opacity:1;fill-rule:nonzero;stroke:none"
                   id="path4266"
                   inkscape:connector-curvature="0" />
                <path
                   d="m 167.012,568.523 c -0.313,-1.382 0.172,-1.953 1.761,-1.953 l 4.821,0 c 3.269,0 4.211,0.407 5.48,0.934 l -1.914,-4.68 -15.297,0 c -4.527,0 -5.578,2.442 -4.679,5.942 l 1.859,7.242 c 0.898,3.5 3.203,5.941 7.73,5.941 l 15.383,0 -0.343,-4.758 c -0.579,0.692 -2.004,1.016 -4.391,1.016 l -5.66,0 c -1.59,0 -2.367,-0.57 -2.766,-1.953 l -1.984,-7.731 z"
                   style="fill:#3c7fca;fill-opacity:1;fill-rule:nonzero;stroke:none"
                   id="path4268"
                   inkscape:connector-curvature="0" />
                <path
                   d="m 198.078,562.824 0.219,1.996 -0.086,0 c -0.711,-0.976 -1.602,-1.996 -3.066,-1.996 l -8.008,0 c -4.653,0 -5.891,2.688 -4.793,6.961 l 1.996,7.77 c 0.68,2.644 0.375,3.418 0.039,4.394 l 10.98,0 -3.543,-13.793 c -0.3,-1.179 0.012,-1.586 1.227,-1.586 l 3.605,0 c 1.215,0 1.739,0.407 2.043,1.586 l 2.414,9.399 c 0.676,2.644 0.375,3.418 0.04,4.394 l 10.98,0 -3.785,-14.73 c -0.676,-2.645 -0.371,-3.418 -0.035,-4.395 l -10.227,0 z"
                   style="fill:#3c7fca;fill-opacity:1;fill-rule:nonzero;stroke:none"
                   id="path4270"
                   inkscape:connector-curvature="0" />
                <path
                   d="m 225.414,581.949 -0.461,-3.09 0.086,0 c 1.547,2.278 2.805,3.09 5.863,3.09 l 4.821,0 -1.61,-6.265 c -1.035,0.691 -1.394,0.937 -4.328,0.937 -3.898,0 -4.82,-0.652 -5.488,-3.258 l -1.574,-6.144 c -0.68,-2.645 -0.375,-3.418 -0.039,-4.395 l -12.075,0 c 0.84,0.977 1.539,1.75 2.219,4.395 l 2.656,10.336 c 0.676,2.648 0.375,3.418 0.039,4.394 l 9.891,0 z"
                   style="fill:#3c7fca;fill-opacity:1;fill-rule:nonzero;stroke:none"
                   id="path4272"
                   inkscape:connector-curvature="0" />
                <path
                   d="m 252.184,574.055 0.668,2.605 c 0.281,1.098 0.062,1.547 -1.028,1.547 l -4.066,0 c -1.09,0 -1.539,-0.449 -1.82,-1.547 l -0.672,-2.605 6.918,0 z m -7.879,-3.742 -0.457,-1.79 c -0.317,-1.382 0.168,-1.953 1.757,-1.953 l 9.516,0 c 1.887,0 2.926,0.121 4.695,0.813 l -1.925,-4.559 -19.7,0 c -4.441,0 -5.238,1.789 -4.214,5.778 l 1.941,7.57 c 1.023,3.988 2.742,5.777 7.184,5.777 l 15.046,0 c 4.446,0 5.243,-1.789 4.219,-5.777 l -1.508,-5.859 -16.554,0 z"
                   style="fill:#3c7fca;fill-opacity:1;fill-rule:nonzero;stroke:none"
                   id="path4274"
                   inkscape:connector-curvature="0" />
                <path
                   d="m 282.59,576.742 c 0.273,1.059 -0.043,1.465 -1.004,1.465 l -3.941,0 c -0.965,0 -1.489,-0.406 -1.758,-1.465 l -2.239,-8.707 c -0.269,-1.058 0.043,-1.465 1.008,-1.465 l 3.942,0 c 0.961,0 1.484,0.407 1.757,1.465 l 2.235,8.707 z m -2.735,-13.918 -0.023,2.035 c -1.066,-1.382 -1.738,-2.035 -2.867,-2.035 l -8.34,0 c -4.527,0 -5.578,2.442 -4.68,5.942 l 1.86,7.246 c 0.898,3.496 3.203,5.937 7.73,5.937 l 7.754,0 c 1.801,0 2.024,-1.097 2.074,-1.871 l 0.086,0 1.336,5.211 c 0.5,1.953 0.344,2.809 0.082,3.578 l 10.731,0 -5.77,-22.461 c -0.5,-1.953 -0.344,-2.808 -0.082,-3.582 l -9.891,0 z"
                   style="fill:#3c7fca;fill-opacity:1;fill-rule:nonzero;stroke:none"
                   id="path4276"
                   inkscape:connector-curvature="0" />
                <path
                   d="m 303.938,584.395 -0.083,0 -4.253,-16.891 c -0.739,-2.93 -0.75,-3.457 -0.196,-4.68 l -6.328,0 c 1.172,1.223 1.426,1.75 2.164,4.68 l 4.203,16.684 c 0.739,2.933 0.75,3.46 0.196,4.679 l 14.093,0 5.336,-21.242 0.125,0 4.172,16.563 c 0.738,2.933 0.746,3.46 0.192,4.679 l 6.328,0 c -1.168,-1.219 -1.426,-1.746 -2.164,-4.679 l -5.383,-21.364 -12.985,0 -5.417,21.571 z"
                   style="fill:#9a9e9f;fill-opacity:1;fill-rule:nonzero;stroke:none"
                   id="path4278"
                   inkscape:connector-curvature="0" />
                <path
                   d="m 345.684,574.055 0.652,2.605 c 0.277,1.098 0.062,1.547 -1.008,1.547 l -3.984,0 c -1.071,0 -1.512,-0.449 -1.789,-1.547 l -0.657,-2.605 6.786,0 z m -7.727,-3.742 -0.449,-1.79 c -0.309,-1.382 0.164,-1.953 1.726,-1.953 l 9.329,0 c 1.851,0 2.867,0.121 4.605,0.813 l -1.891,-4.559 -19.316,0 c -4.356,0 -5.137,1.789 -4.133,5.778 l 1.906,7.57 c 1.004,3.988 2.688,5.777 7.043,5.777 l 14.758,0 c 4.356,0 5.137,-1.789 4.133,-5.777 l -1.477,-5.859 -16.234,0 z"
                   style="fill:#9a9e9f;fill-opacity:1;fill-rule:nonzero;stroke:none"
                   id="path4280"
                   inkscape:connector-curvature="0" />
                <path
                   d="m 364.191,585.855 9.762,0.247 -1.047,-4.153 7.731,0 -0.946,-3.742 -7.726,0 -2.543,-10.094 c -0.305,-1.218 -0.184,-1.543 1.543,-1.543 l 3.41,0 c 1.891,0 3.176,0.528 3.68,0.731 l -1.742,-4.477 -12.168,0 c -3.082,0 -5.446,1.223 -4.247,5.985 l 2.368,9.398 -4.153,0 0.946,3.742 4.148,0 0.984,3.906 z"
                   style="fill:#9a9e9f;fill-opacity:1;fill-rule:nonzero;stroke:none"
                   id="path4282"
                   inkscape:connector-curvature="0" />
                <path
                   d="m 142.543,553.539 c -0.438,0.207 -0.766,0.336 -1.535,0.336 l -3.727,0 c -0.621,0 -0.789,-0.078 -0.883,-0.445 l -0.148,-0.575 c -0.098,-0.382 0.035,-0.445 0.656,-0.445 l 2.836,0 c 1.707,0 2.481,-0.574 2.098,-2.055 l -0.637,-2.488 c -0.414,-1.605 -1.23,-2.5 -3.148,-2.5 l -7.219,0 0.187,2.071 c 0.344,-0.192 0.688,-0.379 1.477,-0.379 l 3.871,0 c 0.621,0 0.77,0.062 0.867,0.445 l 0.18,0.699 c 0.094,0.367 -0.016,0.445 -0.641,0.445 l -3.261,0 c -1.59,0 -2.086,0.512 -1.649,2.215 l 0.586,2.278 c 0.41,1.593 1.426,2.422 2.836,2.422 l 7.43,0 -0.176,-2.024 z"
                   style="fill:#9a9e9f;fill-opacity:1;fill-rule:nonzero;stroke:none"
                   id="path4284"
                   inkscape:connector-curvature="0" />
                <path
                   d="m 152.926,547.711 c -0.129,-0.496 0.094,-0.652 0.617,-0.652 l 1.738,0 c 0.528,0 0.828,0.156 0.957,0.652 l 1.414,5.512 c 0.125,0.492 -0.093,0.652 -0.621,0.652 l -1.738,0 c -0.523,0 -0.828,-0.16 -0.953,-0.652 l -1.414,-5.512 z m -2.758,4.859 c 0.566,2.196 1.719,2.993 3.426,2.993 l 6.004,0 c 1.707,0 2.453,-0.797 1.89,-2.993 l -1.082,-4.207 c -0.562,-2.199 -1.718,-2.996 -3.426,-2.996 l -6.003,0 c -1.704,0 -2.45,0.797 -1.887,2.996 l 1.078,4.207 z"
                   style="fill:#9a9e9f;fill-opacity:1;fill-rule:nonzero;stroke:none"
                   id="path4286"
                   inkscape:connector-curvature="0" />
                <path
                   d="m 175.508,547.059 c 0.461,0 1.297,0.062 1.808,0.332 l -0.863,-2.024 -9.055,0 c 0.301,0.399 0.528,0.781 0.778,1.754 l 1.719,6.692 c 0.246,0.968 0.214,1.351 0.121,1.75 l 4.656,0 c -0.297,-0.399 -0.527,-0.782 -0.777,-1.75 l -1.731,-6.754 3.344,0 z"
                   style="fill:#9a9e9f;fill-opacity:1;fill-rule:nonzero;stroke:none"
                   id="path4288"
                   inkscape:connector-curvature="0" />
                <path
                   d="m 192.469,547.059 c 1.117,0 1.226,0.109 1.457,1.019 l 1.453,5.652 c 0.293,1.149 0.297,1.356 0.074,1.833 l 2.527,0 c -0.464,-0.477 -0.57,-0.684 -0.863,-1.833 l -1.336,-5.207 c -0.597,-2.328 -1.465,-3.156 -3.746,-3.156 l -5.312,0 c -2.051,0 -2.645,1.02 -2.094,3.156 l 1.355,5.29 c 0.25,0.968 0.215,1.351 0.121,1.75 l 4.661,0 c -0.301,-0.399 -0.532,-0.782 -0.782,-1.75 l -1.484,-5.801 c -0.172,-0.668 0.047,-0.953 0.754,-0.953 l 3.215,0 z"
                   style="fill:#9a9e9f;fill-opacity:1;fill-rule:nonzero;stroke:none"
                   id="path4290"
                   inkscape:connector-curvature="0" />
                <path
                   d="m 215.008,555.563 -0.211,-2.102 c -0.375,0.269 -0.649,0.414 -1.387,0.414 l -1.82,0 -1.735,-6.754 c -0.25,-0.973 -0.214,-1.355 -0.121,-1.754 l -4.656,0 c 0.297,0.399 0.527,0.781 0.777,1.754 l 1.731,6.754 -1.82,0 c -0.739,0 -1.086,-0.145 -1.598,-0.414 l 0.867,2.102 9.973,0 z"
                   style="fill:#9a9e9f;fill-opacity:1;fill-rule:nonzero;stroke:none"
                   id="path4292"
                   inkscape:connector-curvature="0" />
                <path
                   d="m 219.887,545.367 c 0.301,0.399 0.531,0.781 0.781,1.754 l 1.715,6.692 c 0.25,0.968 0.215,1.351 0.121,1.75 l 4.66,0 c -0.301,-0.399 -0.531,-0.782 -0.781,-1.75 l -1.715,-6.692 c -0.25,-0.973 -0.215,-1.355 -0.121,-1.754 l -4.66,0 z"
                   style="fill:#9a9e9f;fill-opacity:1;fill-rule:nonzero;stroke:none"
                   id="path4294"
                   inkscape:connector-curvature="0" />
                <path
                   d="m 237.055,547.711 c -0.125,-0.496 0.097,-0.652 0.621,-0.652 l 1.738,0 c 0.527,0 0.828,0.156 0.957,0.652 l 1.41,5.512 c 0.129,0.492 -0.093,0.652 -0.617,0.652 l -1.738,0 c -0.524,0 -0.828,-0.16 -0.957,-0.652 l -1.414,-5.512 z m -2.754,4.859 c 0.562,2.196 1.719,2.993 3.426,2.993 l 6.003,0 c 1.704,0 2.454,-0.797 1.887,-2.993 l -1.078,-4.207 c -0.566,-2.199 -1.719,-2.996 -3.426,-2.996 l -6.004,0 c -1.707,0 -2.453,0.797 -1.886,2.996 l 1.078,4.207 z"
                   style="fill:#9a9e9f;fill-opacity:1;fill-rule:nonzero;stroke:none"
                   id="path4296"
                   inkscape:connector-curvature="0" />
                <path
                   d="m 255.633,553.813 -0.035,0 -1.696,-6.614 c -0.293,-1.144 -0.297,-1.355 -0.074,-1.832 l -2.527,0 c 0.469,0.477 0.57,0.688 0.863,1.832 l 1.676,6.531 c 0.293,1.149 0.297,1.356 0.078,1.833 l 5.625,0 2.133,-8.317 0.047,0 1.664,6.484 c 0.293,1.149 0.297,1.356 0.074,1.833 l 2.527,0 c -0.468,-0.477 -0.57,-0.684 -0.863,-1.833 l -2.145,-8.363 -5.183,0 -2.164,8.446 z"
                   style="fill:#9a9e9f;fill-opacity:1;fill-rule:nonzero;stroke:none"
                   id="path4298"
                   inkscape:connector-curvature="0" />
                <path
                   d="m 282.988,553.539 c -0.437,0.207 -0.765,0.336 -1.539,0.336 l -3.722,0 c -0.625,0 -0.793,-0.078 -0.887,-0.445 l -0.145,-0.575 c -0.101,-0.382 0.032,-0.445 0.657,-0.445 l 2.836,0 c 1.707,0 2.476,-0.574 2.097,-2.055 l -0.637,-2.488 c -0.414,-1.605 -1.234,-2.5 -3.152,-2.5 l -7.219,0 0.188,2.071 c 0.348,-0.192 0.691,-0.379 1.476,-0.379 l 3.872,0 c 0.625,0 0.773,0.062 0.871,0.445 l 0.179,0.699 c 0.094,0.367 -0.019,0.445 -0.64,0.445 l -3.266,0 c -1.59,0 -2.082,0.512 -1.644,2.215 l 0.582,2.278 c 0.41,1.593 1.425,2.422 2.835,2.422 l 7.43,0 -0.172,-2.024 z"
                   style="fill:#9a9e9f;fill-opacity:1;fill-rule:nonzero;stroke:none"
                   id="path4300"
                   inkscape:connector-curvature="0" />
                <path
                   d="m 299.051,545.367 c 0.297,0.399 0.527,0.781 0.777,1.754 l 1.715,6.692 c 0.25,0.968 0.219,1.351 0.121,1.75 l 4.66,0 c -0.301,-0.399 -0.527,-0.782 -0.777,-1.75 l -1.719,-6.692 c -0.246,-0.973 -0.215,-1.355 -0.121,-1.754 l -4.656,0 z"
                   style="fill:#9a9e9f;fill-opacity:1;fill-rule:nonzero;stroke:none"
                   id="path4302"
                   inkscape:connector-curvature="0" />
                <path
                   d="m 315.719,553.813 -0.035,0 -1.696,-6.614 c -0.297,-1.144 -0.297,-1.355 -0.078,-1.832 l -2.523,0 c 0.465,0.477 0.566,0.688 0.863,1.832 l 1.676,6.531 c 0.293,1.149 0.297,1.356 0.074,1.833 l 5.629,0 2.129,-8.317 0.051,0 1.664,6.484 c 0.293,1.149 0.297,1.356 0.074,1.833 l 2.527,0 c -0.469,-0.477 -0.57,-0.684 -0.863,-1.833 l -2.148,-8.363 -5.18,0 -2.164,8.446 z"
                   style="fill:#9a9e9f;fill-opacity:1;fill-rule:nonzero;stroke:none"
                   id="path4304"
                   inkscape:connector-curvature="0" />
                <path
                   d="m 341.793,553.605 c -0.402,0.157 -0.766,0.27 -1.539,0.27 l -2.871,0 c -0.524,0 -0.828,-0.16 -0.953,-0.652 l -1.414,-5.512 c -0.125,-0.496 0.093,-0.652 0.617,-0.652 l 2.265,0 c 1.61,0 1.899,0.109 2.508,0.379 l -0.875,-2.071 -6.461,0 c -1.707,0 -2.453,0.797 -1.89,2.996 l 1.082,4.207 c 0.562,2.196 1.718,2.993 3.426,2.993 l 6.296,0 -0.191,-1.958 z"
                   style="fill:#9a9e9f;fill-opacity:1;fill-rule:nonzero;stroke:none"
                   id="path4306"
                   inkscape:connector-curvature="0" />
                <path
                   d="m 342.285,548.043 3.871,0 -0.687,-2.676 -3.871,0 0.687,2.676 z"
                   style="fill:#9a9e9f;fill-opacity:1;fill-rule:nonzero;stroke:none"
                   id="path4308"
                   inkscape:connector-curvature="0" />
                <g
                   id="g4310"
                   transform="translate(0,633)">
                  <path
                     d="m 87.797,-53.762 c -0.035,0.114 -0.063,0.227 -0.102,0.34 -0.062,0.102 -0.132,0.199 -0.199,0.301 0.106,-0.211 0.207,-0.426 0.301,-0.641 z"
                     style="fill:none;stroke:#ba2c9d;stroke-width:0.072;stroke-linecap:butt;stroke-linejoin:miter;stroke-miterlimit:10;stroke-dasharray:none;stroke-opacity:1"
                     id="path4312"
                     inkscape:connector-curvature="0" />
                </g>
              </g>
            </g>
          </g>
        </g>
        <g
           id="g4314">
          <g
             id="g4316">
            <g
               id="g4322">
              <path
                 d="m 43.34,580.521 c -2.344,-3.809 -3.695,-8.281 -3.695,-13.066 0,-4.879 1.406,-9.426 3.832,-13.282 -0.036,0.11 -0.063,0.227 -0.098,0.34 -1.356,3.106 -2.109,6.531 -2.109,10.133 0,5.027 1.472,9.715 4.003,13.668 0.786,1.227 1.668,2.387 2.649,3.457 l -1.781,2.477 c -1.043,-1.149 -1.985,-2.395 -2.801,-3.727"
                 style="fill:url(#linearGradient4324);stroke:none"
                 id="path4332"
                 inkscape:connector-curvature="0" />
            </g>
          </g>
        </g>
        <g
           id="g4334">
          <g
             id="g4336">
            <g
               id="g4342">
              <path
                 d="m 54.773,587.119 1.645,-1.879 c 3.742,1.98 8.016,3.105 12.555,3.105 5.972,0 11.484,-1.941 15.925,-5.222 -4.632,4.382 -10.906,7.082 -17.82,7.082 -4.457,0 -8.648,-1.118 -12.305,-3.086"
                 style="fill:url(#radialGradient4344);stroke:none"
                 id="path4352"
                 inkscape:connector-curvature="0" />
            </g>
          </g>
        </g>
        <g
           id="g4354"
           transform="translate(0,-0.307068)">
          <g
             id="g4356">
            <g
               id="g4358"
               clip-path="url(#clipPath4360)">
              <g
                 id="g4364">
                <g
                   id="g4366"
                   transform="translate(0,633)">
                  <path
                     d="m 43.672,-78.824 c -0.098,0.215 -0.199,0.426 -0.293,0.644 0.035,-0.113 0.062,-0.23 0.098,-0.34 0.066,-0.101 0.132,-0.203 0.195,-0.304 z"
                     style="fill:none;stroke:#ba2c9d;stroke-width:0.072;stroke-linecap:butt;stroke-linejoin:miter;stroke-miterlimit:10;stroke-dasharray:none;stroke-opacity:1"
                     id="path4368"
                     inkscape:connector-curvature="0" />
                </g>
                <g
                   id="g4370"
                   transform="translate(0,633)">
                  <path
                     d="m 84.941,-49.609 -0.019,0.023 c -0.008,0.004 -0.016,0.008 -0.02,0.016 0.012,-0.012 0.024,-0.028 0.039,-0.039 z"
                     style="fill:none;stroke:#ba2c9d;stroke-width:0.072;stroke-linecap:butt;stroke-linejoin:miter;stroke-miterlimit:10;stroke-dasharray:none;stroke-opacity:1"
                     id="path4372"
                     inkscape:connector-curvature="0" />
                </g>
              </g>
            </g>
          </g>
        </g>
        <g
           id="g4374">
          <g
             id="g4376">
            <g
               id="g4382">
              <path
                 d="m 87.797,578.931 c 1.387,-3.094 2.176,-6.512 2.211,-10.113 0.055,-5.945 -1.945,-11.43 -5.344,-15.805 -0.828,-1.07 -1.742,-2.078 -2.734,-3.004 l 1.828,-2.449 c 1.047,0.988 2.008,2.059 2.875,3.211 3.203,4.254 5.078,9.539 5.023,15.254 -0.047,4.879 -1.496,9.414 -3.957,13.246 0.035,-0.113 0.063,-0.227 0.098,-0.34"
                 style="fill:url(#linearGradient4384);stroke:none"
                 id="path4390"
                 inkscape:connector-curvature="0" />
            </g>
          </g>
        </g>
        <g
           id="g4392"
           transform="translate(0,-0.307068)">
          <g
             id="g4394">
            <g
               id="g4396"
               clip-path="url(#clipPath4398)">
              <g
                 id="g4402">
                <g
                   id="g4404"
                   transform="translate(0,633)">
                  <path
                     d="m 46.516,-82.73 0.015,-0.024 c 0.008,-0.004 0.016,-0.012 0.024,-0.016 -0.016,0.012 -0.028,0.024 -0.039,0.04 z"
                     style="fill:none;stroke:#ba2c9d;stroke-width:0.072;stroke-linecap:butt;stroke-linejoin:miter;stroke-miterlimit:10;stroke-dasharray:none;stroke-opacity:1"
                     id="path4406"
                     inkscape:connector-curvature="0" />
                </g>
              </g>
            </g>
          </g>
        </g>
        <g
           id="g4408">
          <g
             id="g4410">
            <g
               id="g4416">
              <path
                 d="m 52.727,589.451 c -0.051,-0.028 -0.102,-0.059 -0.153,-0.086 -2.418,-1.352 -4.59,-3.082 -6.433,-5.117 l 1.781,-2.477 1.414,-1.969 23.551,-32.777 1.019,-1.418 0.465,-0.531 c -0.023,-0.008 -0.047,-0.016 -0.066,-0.024 -3.032,-1.281 -6.36,-2.008 -9.86,-2.039 -6.914,-0.066 -13.215,2.571 -17.89,6.91 -0.008,0.004 -0.016,0.012 -0.024,0.016 4.711,-5.742 11.918,-9.387 19.969,-9.312 3.395,0.035 6.625,0.73 9.578,1.957 0.113,0.046 0.231,0.093 0.348,0.144 2.73,1.18 5.203,2.828 7.332,4.832 l -1.828,2.449 -1.457,1.953 -24.598,32.977 -1.469,1.973 c 0.121,0.066 0.242,0.14 0.367,0.207 3.657,1.968 7.848,3.086 12.305,3.086 6.914,0 13.188,-2.7 17.82,-7.082 0.008,-0.008 0.016,-0.012 0.024,-0.016 -4.652,5.789 -11.824,9.5 -19.875,9.5 -4.473,0 -8.672,-1.148 -12.32,-3.156"
                 style="fill:url(#radialGradient4418);stroke:none"
                 id="path4426"
                 inkscape:connector-curvature="0" />
            </g>
          </g>
        </g>
        <g
           id="g4428">
          <g
             id="g4430">
            <g
               id="g4436">
              <path
                 d="m 64.445,543.013 c 3.5,0.031 6.828,0.758 9.86,2.039 0.019,0.008 0.043,0.016 0.066,0.024 l -0.465,0.531 -1.183,1.352 c -3.137,-1.321 -6.575,-2.075 -10.192,-2.106 -5.972,-0.059 -11.5,1.832 -15.976,5.07 4.675,-4.339 10.976,-6.976 17.89,-6.91"
                 style="fill:url(#radialGradient4438);stroke:none"
                 id="path4448"
                 inkscape:connector-curvature="0" />
            </g>
          </g>
        </g>
      </g>
    </g>
  </g>
</svg>
